<svg width="82" height="89" viewBox="0 0 82 89" fill="none" xmlns="http://www.w3.org/2000/svg">
<path fill-rule="evenodd" clip-rule="evenodd" d="M28.5 58.875C28.4219 59.4153 29 60.7788 29 60.7788C29 67.2515 34.3726 72.4986 41 72.4986C47.6274 72.4986 53 67.2515 53 60.7788C53 60.2175 52.9596 59.4153 52.8815 58.875H82V85.1951C82 86.8132 80.6569 88.125 79 88.125H3C1.34315 88.125 0 86.8132 0 85.1951V58.875H28.5Z" fill="white"/>
<path fill-rule="evenodd" clip-rule="evenodd" d="M54 59.625C54 66.8047 48.1797 72.625 41 72.625C33.8203 72.625 28 66.8047 28 59.625C28 59.3924 28.0061 59.1612 28.0182 58.9316H0L9.56044 30.6639C9.9726 29.4452 11.1159 28.625 12.4023 28.625H69.5977C70.8842 28.625 72.0274 29.4452 72.4396 30.6639L82 58.9316H53.9818C53.9939 59.1612 54 59.3924 54 59.625Z" fill="white"/>
<path fill-rule="evenodd" clip-rule="evenodd" d="M52.5 60.875C52.5 66.423 47.129 71.625 41 71.625C34.871 71.625 29.2029 66.253 29.2029 60.7051C29.2029 60.5253 29.1926 59.2212 29.2029 59.0438H9L17.1614 39.2005C17.5132 38.2588 18.4891 37.625 19.5873 37.625H62.4127C63.5109 37.625 64.4868 38.2588 64.8387 39.2005L73 59.0438H52.5C52.5103 59.2212 52.5 60.6953 52.5 60.875Z" fill="#EFEFEF"/>
<path d="M6.57373 57.375C5.88337 57.375 5.32373 57.9346 5.32373 58.625C5.32373 59.3154 5.88337 59.875 6.57373 59.875H9C9.69036 59.875 10.25 59.3154 10.25 58.625C10.25 57.9346 9.69036 57.375 9 57.375H6.57373Z" fill="#CCCCCC"/>
<path fill-rule="evenodd" clip-rule="evenodd" d="M12.4023 28.625C11.1158 28.625 9.9726 29.4452 9.56044 30.6639L0 58.9316V85.625C0 87.2819 1.34315 88.625 3 88.625H79C80.6569 88.625 82 87.2819 82 85.625V58.9316L72.4396 30.6639C72.0274 29.4452 70.8842 28.625 69.5977 28.625H12.4023ZM11.9287 31.4648C11.9974 31.2617 12.1879 31.125 12.4023 31.125H69.5977C69.8121 31.125 70.0026 31.2617 70.0713 31.4648L78.8344 57.375H55.0496C53.777 57.375 52.8279 57.8556 52.3198 58.7543C51.9191 59.463 51.922 60.253 51.9232 60.5791L51.9234 60.625C51.9234 66.5354 47.0138 71.375 40.8973 71.375C34.7808 71.375 29.8712 66.5354 29.8712 60.625L29.8713 60.5791C29.8725 60.253 29.8755 59.463 29.4748 58.7543C28.9667 57.8556 28.0175 57.375 26.7449 57.375H14C13.3096 57.375 12.75 57.9346 12.75 58.625C12.75 59.3154 13.3096 59.875 14 59.875H26.7449C27.0717 59.875 27.2176 59.9327 27.2627 59.9557C27.2909 59.9701 27.2941 59.9763 27.2974 59.9825L27.2985 59.9847C27.3116 60.0077 27.3365 60.0676 27.3529 60.1906C27.3697 60.3165 27.3712 60.448 27.3712 60.625C27.3712 67.9694 33.454 73.875 40.8973 73.875C48.3406 73.875 54.4234 67.9694 54.4234 60.625C54.4234 60.448 54.4248 60.3165 54.4417 60.1906C54.4581 60.0676 54.483 60.0077 54.496 59.9847L54.4972 59.9825C54.5004 59.9763 54.5037 59.9701 54.5318 59.9557C54.577 59.9327 54.7228 59.875 55.0496 59.875H79.5V85.625C79.5 85.9011 79.2761 86.125 79 86.125H3C2.72386 86.125 2.5 85.9011 2.5 85.625V59.3429L11.9287 31.4648Z" fill="#CCCCCC"/>
<path fill-rule="evenodd" clip-rule="evenodd" d="M40.0996 0.375C40.79 0.375 41.3496 0.934644 41.3496 1.625V18.3809C41.3496 19.0712 40.79 19.6309 40.0996 19.6309C39.4093 19.6309 38.8496 19.0712 38.8496 18.3809V1.625C38.8496 0.934644 39.4093 0.375 40.0996 0.375ZM13.1683 4.9946C13.6837 4.53525 14.4738 4.58066 14.9332 5.09602L26.0328 17.5491C26.4921 18.0645 26.4467 18.8547 25.9313 19.314C25.416 19.7733 24.6258 19.7279 24.1665 19.2126L13.0669 6.75945C12.6075 6.24409 12.6529 5.45394 13.1683 4.9946ZM66.9313 4.9946C67.4467 5.45394 67.4921 6.24409 67.0328 6.75945L55.9332 19.2126C55.4738 19.7279 54.6837 19.7733 54.1683 19.314C53.6529 18.8547 53.6075 18.0645 54.0669 17.5491L65.1665 5.09602C65.6258 4.58066 66.416 4.53525 66.9313 4.9946Z" fill="#EFEFEF"/>
</svg>
