<svg width="16" height="16" viewBox="0 0 16 16" fill="none" xmlns="http://www.w3.org/2000/svg">
<circle cx="8" cy="8" r="8" fill="url(#paint0_linear_1360_14983)"/>
<path d="M8.28452 4.38455C9.46107 4.35815 10.1615 4.99047 10.2881 5.41156L11.7253 5.00333C11.4862 4.4597 10.6619 3.04477 8.33436 2.93848C3.92584 2.93915 3.5918 7.21645 3.5918 7.65041C3.5918 12.1586 6.82916 12.6602 8.08719 12.7205C9.21054 12.7767 10.9393 12.6562 11.7839 12.4781V7.02621H7.23458V8.5339H10.0766C10.0908 8.5339 10.1029 8.54608 10.1029 8.56098V11.2033C10.1029 11.2189 10.0914 11.2351 10.078 11.2399C10.078 11.2399 9.37419 11.3847 8.3586 11.3489C7.95924 11.336 5.46404 11.2331 5.46404 7.84674C5.46404 5.67086 6.51263 4.40419 8.28452 4.38455Z" fill="white"/>
<defs>
<linearGradient id="paint0_linear_1360_14983" x1="3.7551" y1="1.30612" x2="13.3878" y2="17.4694" gradientUnits="userSpaceOnUse">
<stop offset="0.155" stop-color="#E72E6B"/>
<stop offset="1" stop-color="#F3973D"/>
</linearGradient>
</defs>
</svg>
