<svg width="130" height="130" viewBox="0 0 130 130" fill="none" xmlns="http://www.w3.org/2000/svg">
<path d="M66.4163 14.5249C65.2841 14.1826 64.0759 14.1826 62.9437 14.5249L23.0463 26.5858C22.227 26.8335 21.6571 27.55 21.6292 28.4054C21.3844 35.909 20.3182 71.0909 21.6762 76C27.1568 95.8128 53.9638 110.65 62.241 114.818C63.7809 115.594 65.5791 115.594 67.119 114.818C75.3956 110.65 102.2 95.8127 107.68 76C109.038 71.0909 107.972 35.909 107.727 28.4054C107.699 27.55 107.129 26.8335 106.31 26.5858L66.4163 14.5249Z" fill="#D4F5E1"/>
<path d="M61.9213 14.5295C63.2054 14.1414 64.5 15.1025 64.5 16.444V112.651C64.5 114.104 63.0274 115.06 61.7321 114.402C53.097 110.017 26.9062 95.3077 21.4962 75.75C20.1382 70.8409 21.2044 35.659 21.4492 28.1554C21.4771 27.3 22.047 26.5835 22.8663 26.3358L61.9213 14.5295Z" fill="white" fill-opacity="0.4"/>
<path fill-rule="evenodd" clip-rule="evenodd" d="M50.5 50.25H81.5C85.366 50.25 88.5 53.384 88.5 57.25V77.25C88.5 81.116 85.366 84.25 81.5 84.25H50.5C46.634 84.25 43.5 81.116 43.5 77.25V57.25C43.5 53.384 46.634 50.25 50.5 50.25ZM50.5 53.25C48.2909 53.25 46.5 55.0409 46.5 57.25V77.25C46.5 79.4591 48.2909 81.25 50.5 81.25H81.5C83.7091 81.25 85.5 79.4591 85.5 77.25V57.25C85.5 55.0409 83.7091 53.25 81.5 53.25H50.5Z" fill="#26D07C"/>
<path d="M67.2026 67.8706C68.5601 67.231 69.5 65.8503 69.5 64.25C69.5 62.0408 67.709 60.25 65.5 60.25C63.291 60.25 61.5 62.0408 61.5 64.25C61.5 65.8503 62.4399 67.231 63.7974 67.8706L63 74.25H68L67.2026 67.8706Z" fill="#26D07C"/>
<path d="M75.5 50.25V45.25C75.5 39.7272 71.0228 35.25 65.5 35.25C59.9772 35.25 55.5 39.7272 55.5 45.25V50.25C55.5 50.25 55.5 52 54 52C52.5 52 52.5 50.25 52.5 50.25V45.25C52.5 38.0703 58.3203 32.25 65.5 32.25C72.6797 32.25 78.5 38.0703 78.5 45.25V50.25C78.5 50.25 78.5 52 77 52C75.5 52 75.5 50.25 75.5 50.25Z" fill="#26D07C"/>
</svg>
