<svg width="50" height="50" viewBox="0 0 50 50" fill="none" xmlns="http://www.w3.org/2000/svg">
<circle cx="25" cy="25" r="25" fill="url(#paint0_linear_315_15845)"/>
<path d="M25.8894 13.7026C29.5661 13.6201 31.7549 15.5961 32.1505 16.912L36.6417 15.6363C35.8946 13.9374 33.3186 9.51575 26.0451 9.18359C12.2685 9.18571 11.2246 22.5523 11.2246 23.9084C11.2246 37.9964 21.3414 39.564 25.2727 39.7523C28.7832 39.9279 34.1857 39.5513 36.8248 38.9949V21.9578H22.6083V26.6693H31.4897C31.5339 26.6693 31.5718 26.7074 31.5718 26.7539V35.0112C31.5718 35.0599 31.536 35.1106 31.4939 35.1254C31.4939 35.1254 29.2946 35.5782 26.1209 35.4661C24.8729 35.4259 17.0754 35.1043 17.0754 24.5219C17.0754 17.7223 20.3522 13.7639 25.8894 13.7026Z" fill="white"/>
<defs>
<linearGradient id="paint0_linear_315_15845" x1="11.7347" y1="4.08163" x2="41.8367" y2="54.5918" gradientUnits="userSpaceOnUse">
<stop offset="0.155" stop-color="#E72E6B"/>
<stop offset="1" stop-color="#F3973D"/>
</linearGradient>
</defs>
</svg>
