<?xml version="1.0" encoding="UTF-8" standalone="no"?>
<svg width="28px" height="28px" viewBox="0 0 28 28" version="1.1" xmlns="http://www.w3.org/2000/svg" xmlns:xlink="http://www.w3.org/1999/xlink">
    <!-- Generator: Sketch 44 (41411) - http://www.bohemiancoding.com/sketch -->
    <title>icon_search</title>
    <desc>Created with Sketch.</desc>
    <defs></defs>
    <g id="Symbols" stroke="none" stroke-width="1" fill="none" fill-rule="evenodd">
        <g id="nav" transform="translate(-1352.000000, -21.000000)">
            <g id="icon_search" transform="translate(1352.000000, 21.000000)">
                <circle id="Oval" fill="#FFFFFF" cx="14" cy="14" r="14"></circle>
                <path d="M12.2823932,4.83499494 C8.11130644,4.83625246 4.72910645,8.21521314 4.72784959,12.3830591 C4.72659273,16.5500667 8.10711692,19.9273506 12.2782036,19.9260931 C16.4488714,19.9252548 19.8310714,16.5458749 19.8323283,12.3784482 C19.8335851,8.2110214 16.4534799,4.83373742 12.2823932,4.83499494 M12.2740141,20.7619258 C7.64794546,20.7631834 3.89874346,17.0119963 3.90000032,12.3834782 C3.90125717,7.75454104 7.65297288,4.00125808 12.2790415,4.00000056 C16.9055292,3.99832387 20.6547312,7.74993013 20.6530554,12.3784482 C20.6517985,17.0073854 16.9005017,20.7606683 12.2740141,20.7619258 M20.8318323,21.5234492 L22.1847441,22.8770773 C22.3481354,23.0409742 22.6133321,23.0409742 22.7771423,22.8770773 C22.9409526,22.7131803 22.9409526,22.4478432 22.7771423,22.2843654 L19.8164081,19.3220635 C19.8067423,19.3123927 19.7967203,19.3032939 19.7863841,19.2947673 L18.4330712,17.9407378 C18.2696799,17.77726 18.0044832,17.77726 17.8410919,17.941157 C17.6772817,18.1046348 17.6772817,18.3699719 17.840673,18.5334497 L20.8014072,21.4957515 C20.8111979,21.5055726 20.8213542,21.5148051 20.8318323,21.5234492 Z" id="Fill-1" fill="#3F495E" transform="translate(13.400000, 13.500000) scale(-1, 1) translate(-13.400000, -13.500000) "></path>
            </g>
        </g>
    </g>
</svg>