<?xml version="1.0" encoding="utf-8"?>
<!-- Generator: Adobe Illustrator 23.1.0, SVG Export Plug-In . SVG Version: 6.00 Build 0)  -->
<svg version="1.1" id="圖層_1" xmlns="http://www.w3.org/2000/svg" xmlns:xlink="http://www.w3.org/1999/xlink" x="0px" y="0px"
	 viewBox="0 0 28 28" style="enable-background:new 0 0 28 28;" xml:space="preserve">
<style type="text/css">
	.st0{fill-rule:evenodd;clip-rule:evenodd;fill:#FFFFFF;}
	.st1{fill:#3F495E;}
</style>
<title>icon_mail</title>
<desc>Created with Sketch.</desc>
<g id="Symbols">
	<g id="nav" transform="translate(-1126.000000, -21.000000)">
		<g id="icon_mail" transform="translate(1126.000000, 21.000000)">
			<circle id="Oval" class="st0" cx="14" cy="14" r="14"/>
			<g>
				<g>
					<path class="st1" d="M13.5,14.3c0,1.4-0.7,2.1-2,2.1c-1.3,0-2-0.7-2-2.1c0-1.4,0.7-2.1,2-2.1C12.8,12.1,13.5,12.8,13.5,14.3z
						 M17.9,12.5c0,0.1-0.1,0.2-0.3,0.4l-6.3,7c-0.1,0.2-0.3,0.2-0.6,0.2c-0.4,0-0.6-0.1-0.6-0.4c0-0.1,0-0.1,0.1-0.2l6.5-7.3
						c0.2-0.2,0.4-0.2,0.6-0.2C17.7,12.1,17.9,12.3,17.9,12.5z M12.2,14.3c0-0.5,0-0.8-0.1-1c-0.1-0.3-0.3-0.5-0.6-0.5
						c-0.3,0-0.5,0.2-0.6,0.5c0,0.2-0.1,0.5-0.1,1c0,0.5,0,0.8,0.1,1c0.1,0.3,0.3,0.4,0.6,0.4c0.3,0,0.5-0.1,0.6-0.4
						C12.2,15.1,12.2,14.8,12.2,14.3z M18.5,18.1c0,1.4-0.7,2.1-2,2.1c-1.3,0-2-0.7-2-2.1c0-1.4,0.7-2.1,2-2.1
						C17.8,16,18.5,16.7,18.5,18.1z M17.2,18.1c0-0.5,0-0.8-0.1-1c-0.1-0.3-0.3-0.5-0.6-0.5c-0.3,0-0.5,0.2-0.6,0.5
						c0,0.2-0.1,0.5-0.1,1c0,0.5,0,0.8,0.1,1c0.1,0.3,0.3,0.4,0.6,0.4c0.3,0,0.5-0.1,0.6-0.4C17.2,19,17.2,18.6,17.2,18.1z"/>
				</g>
				<path class="st1" d="M20.9,9.1h-1.8C19.6,8.8,19.9,8.5,20,8c0.2-0.5,0.2-1.6-1.4-2.9c-0.4-0.3-0.8-0.4-1.3-0.3
					c-1.3,0.3-2.5,2-3.1,2.9c-0.6-1-1.9-2.8-3.2-3c-0.5-0.1-0.9,0.1-1.2,0.4C8.1,6.6,8.1,7.7,8.3,8.4c0.1,0.3,0.3,0.5,0.6,0.8H7.1
					c-1,0-1.8,0.8-1.8,1.9v10.4c0,1,0.8,1.9,1.8,1.9h13.7c1,0,1.8-0.8,1.8-1.9V11C22.7,10,21.9,9.1,20.9,9.1z M17.5,5.8
					c0.2,0,0.3,0,0.5,0.1c0.9,0.7,1.3,1.3,1.1,1.8c-0.2,0.6-1.5,1.3-4.4,1.4c0-0.1,0-0.2,0.1-0.3C15.2,7.7,16.6,6,17.5,5.8z
					 M10.5,5.8c0.1-0.1,0.2-0.1,0.3-0.1c0,0,0.1,0,0.1,0c0.9,0.1,2.3,1.8,2.8,3c0,0.1,0.1,0.3,0.1,0.3s-0.2,0-0.4,0
					c-3.3,0-4-0.7-4.1-1.1C9.1,7.5,9.5,6.7,10.5,5.8z M21.8,21.4c0,0.5-0.4,0.9-0.9,0.9H7.1c-0.5,0-0.9-0.4-0.9-0.9V11
					c0-0.5,0.4-0.9,0.9-0.9h13.7c0.5,0,0.9,0.4,0.9,0.9V21.4z"/>
			</g>
		</g>
	</g>
</g>
</svg>
