<?xml version="1.0" encoding="UTF-8" standalone="no"?>
<svg width="28px" height="28px" viewBox="0 0 28 28" version="1.1" xmlns="http://www.w3.org/2000/svg" xmlns:xlink="http://www.w3.org/1999/xlink">
    <!-- Generator: Sketch 43.2 (39069) - http://www.bohemiancoding.com/sketch -->
    <title>icon_user</title>
    <desc>Created with Sketch.</desc>
    <defs></defs>
    <g id="Symbols" stroke="none" stroke-width="1" fill="none" fill-rule="evenodd">
        <g id="nav" transform="translate(-1002.000000, -21.000000)">
            <g id="icon_user" transform="translate(1002.000000, 21.000000)">
                <circle id="Oval" fill="#FFFFFF" cx="14" cy="14" r="14"></circle>
                <path d="M18.2857143,7.79347826 C18.2857143,5.65056522 16.4733333,3.91304348 14.2380952,3.91304348 L13.7619048,3.91304348 C11.5261905,3.91304348 9.71428571,5.65056522 9.71428571,7.79347826 L9.71428571,9.16304348 C9.71428571,11.306413 11.5261905,13.0434783 13.7619048,13.0434783 L14.2380952,13.0434783 C16.4733333,13.0434783 18.2857143,11.306413 18.2857143,9.16304348 L18.2857143,7.79347826 Z M14.2380952,13.9565217 L13.7619048,13.9565217 C11.0004762,13.9565217 8.76190476,11.810413 8.76190476,9.16304348 L8.76190476,7.79347826 C8.76190476,5.1461087 11.0004762,3 13.7619048,3 L14.2380952,3 C16.9995238,3 19.2380952,5.1461087 19.2380952,7.79347826 L19.2380952,9.16304348 C19.2380952,11.810413 16.9995238,13.9565217 14.2380952,13.9565217 L14.2380952,13.9565217 Z M23.5238095,24 C23.2609524,24 23.047619,23.7954783 23.047619,23.5434783 C23.047619,19.2571957 19.4233333,15.7826087 14.952381,15.7826087 L13.047619,15.7826087 C8.57666667,15.7826087 4.95238095,19.2571957 4.95238095,23.5434783 C4.95238095,23.7954783 4.73904762,24 4.47619048,24 C4.21333333,24 4,23.7954783 4,23.5434783 C4,18.7531957 8.05095238,14.8695652 13.047619,14.8695652 L14.952381,14.8695652 C19.9490476,14.8695652 24,18.7531957 24,23.5434783 C24,23.7954783 23.7866667,24 23.5238095,24 L23.5238095,24 Z" id="Page-1" fill="#3F495E"></path>
            </g>
        </g>
    </g>
</svg>