<?xml version="1.0" encoding="UTF-8" standalone="no"?>
<svg width="28px" height="28px" viewBox="0 0 28 28" version="1.1" xmlns="http://www.w3.org/2000/svg" xmlns:xlink="http://www.w3.org/1999/xlink">
    <!-- Generator: Sketch 43.1 (39012) - http://www.bohemiancoding.com/sketch -->
    <title>icon_mail</title>
    <desc>Created with Sketch.</desc>
    <defs></defs>
    <g id="Symbols" stroke="none" stroke-width="1" fill="none" fill-rule="evenodd">
        <g id="nav" transform="translate(-1126.000000, -21.000000)">
            <g id="icon_mail" transform="translate(1126.000000, 21.000000)">
                <circle id="Oval" fill="#FFFFFF" cx="14" cy="14" r="14"></circle>
                <path d="M14.4478,17.5722778 C14.4275417,17.6100556 14.4086646,17.6487778 14.3778167,17.6804167 C14.1977938,17.8650556 13.90635,17.8650556 13.7267875,17.6804167 L5.91305625,9.66680556 C5.73303333,9.48216667 5.73303333,9.18325 5.91305625,8.99861111 C6.09261875,8.81444444 6.3840625,8.81444444 6.56408542,8.99861111 L14.0343458,16.6608889 L21.5248646,8.97830556 C21.7044271,8.79366667 21.9963313,8.79366667 22.1758938,8.97830556 C22.3559167,9.16247222 22.3559167,9.46186111 22.1758938,9.64602778 L14.4478,17.5722778 Z M24.1791667,7.88888889 C24.1791667,7.36755556 23.7670938,6.94444444 23.2583333,6.94444444 L4.84166667,6.94444444 C4.33290625,6.94444444 3.92083333,7.36755556 3.92083333,7.88888889 L3.92083333,21.1111111 C3.92083333,21.6329167 4.33290625,22.0555556 4.84166667,22.0555556 L23.2583333,22.0555556 C23.7670938,22.0555556 24.1791667,21.6329167 24.1791667,21.1111111 L24.1791667,7.88888889 Z M23.2583333,23 L4.84166667,23 C3.82460625,23 3,22.1547222 3,21.1111111 L3,7.88888889 C3,6.84575 3.82460625,6 4.84166667,6 L23.2583333,6 C24.2753938,6 25.1,6.84575 25.1,7.88888889 L25.1,21.1111111 C25.1,22.1547222 24.2753938,23 23.2583333,23 L23.2583333,23 Z" id="Fill-1" fill="#3F495E"></path>
            </g>
        </g>
    </g>
</svg>