<?xml version="1.0" encoding="UTF-8" standalone="no"?>
<svg width="28px" height="28px" viewBox="0 0 28 28" version="1.1" xmlns="http://www.w3.org/2000/svg" xmlns:xlink="http://www.w3.org/1999/xlink">
    <!-- Generator: Sketch 43.1 (39012) - http://www.bohemiancoding.com/sketch -->
    <title>icon_shoplist</title>
    <desc>Created with Sketch.</desc>
    <defs></defs>
    <g id="Symbols" stroke="none" stroke-width="1" fill="none" fill-rule="evenodd">
        <g id="nav" transform="translate(-1242.000000, -21.000000)">
            <g id="icon_shoplist" transform="translate(1242.000000, 21.000000)">
                <circle id="Oval" fill="#FFFFFF" cx="14" cy="14" r="14"></circle>
                <path d="M8.42553191,6.22222222 C6.47033191,6.22222222 4.88510638,7.81422222 4.88510638,9.77777778 L4.88510638,19.5555556 C4.88510638,21.5191111 6.47033191,23.1111111 8.42553191,23.1111111 L18.1617021,23.1111111 C20.1169021,23.1111111 21.7021277,21.5191111 21.7021277,19.5555556 L21.7021277,13.7022222 C22.0052766,13.6551111 22.3017872,13.5888889 22.587234,13.4964444 L22.587234,19.5555556 C22.587234,22.0102222 20.6059234,24 18.1617021,24 L8.42553191,24 C5.98131064,24 4,22.0102222 4,19.5555556 L4,9.77777778 C4,7.32311111 5.98131064,5.33333333 8.42553191,5.33333333 L15.7161532,5.33333333 C15.568783,5.61688889 15.4435404,5.91333333 15.3444085,6.22222222 L8.42553191,6.22222222 Z M15.506383,14.6666667 C15.506383,14.912 15.3081191,15.1111111 15.0638298,15.1111111 L7.98297872,15.1111111 C7.73868936,15.1111111 7.54042553,14.912 7.54042553,14.6666667 C7.54042553,14.4213333 7.73868936,14.2222222 7.98297872,14.2222222 L15.0638298,14.2222222 C15.3081191,14.2222222 15.506383,14.4213333 15.506383,14.6666667 L15.506383,14.6666667 Z M7.98297872,11.1111111 C7.73868936,11.1111111 7.54042553,10.912 7.54042553,10.6666667 C7.54042553,10.4213333 7.73868936,10.2222222 7.98297872,10.2222222 L12.8510638,10.2222222 C13.0953532,10.2222222 13.293617,10.4213333 13.293617,10.6666667 C13.293617,10.912 13.0953532,11.1111111 12.8510638,11.1111111 L7.98297872,11.1111111 Z M18.1617021,18.6666667 C18.1617021,18.912 17.9634383,19.1111111 17.7191489,19.1111111 L7.98297872,19.1111111 C7.73868936,19.1111111 7.54042553,18.912 7.54042553,18.6666667 C7.54042553,18.4213333 7.73868936,18.2222222 7.98297872,18.2222222 L17.7191489,18.2222222 C17.9634383,18.2222222 18.1617021,18.4213333 18.1617021,18.6666667 L18.1617021,18.6666667 Z M20.8170213,4.88888889 C19.1061106,4.88888889 17.7191489,6.28177778 17.7191489,8 C17.7191489,9.71822222 19.1061106,11.1111111 20.8170213,11.1111111 C22.5279319,11.1111111 23.9148936,9.71822222 23.9148936,8 C23.9148936,6.28177778 22.5279319,4.88888889 20.8170213,4.88888889 L20.8170213,4.88888889 Z M24.2231567,10.0746601 C24.5892085,9.46978048 24.8,8.7596376 24.8,8 C24.8,5.79111111 23.0169532,4 20.8170213,4 C18.6170894,4 16.8340426,5.79111111 16.8340426,8 C16.8340426,10.2093333 18.6170894,12 20.8170213,12 C21.9793579,12 23.0253191,11.5001265 23.7534069,10.7027382 L26.0560404,13.0065909 C26.2073923,13.1584113 26.4530481,13.1584113 26.6047882,13.0065909 C26.7565282,12.8547705 26.7565282,12.6089846 26.6047882,12.4575525 L24.2231567,10.0746601 Z" id="Page-1" fill="#3F495E"></path>
            </g>
        </g>
    </g>
</svg>