<?xml version="1.0" encoding="utf-8"?>
<!-- Generator: Adobe Illustrator 16.0.3, SVG Export Plug-In . SVG Version: 6.00 Build 0)  -->
<!DOCTYPE svg PUBLIC "-//W3C//DTD SVG 1.1//EN" "http://www.w3.org/Graphics/SVG/1.1/DTD/svg11.dtd">
<svg version="1.1" id="圖層_1" xmlns="http://www.w3.org/2000/svg" xmlns:xlink="http://www.w3.org/1999/xlink" x="0px" y="0px"
	 width="28px" height="28px" viewBox="0 0 28 28" enable-background="new 0 0 28 28" xml:space="preserve">
<title>icon_mail</title>
<desc>Created with Sketch.</desc>
<g>
	<g id="Symbols">
		<g id="nav" transform="translate(-1126.000000, -21.000000)">
			<g id="icon_mail" transform="translate(1126.000000, 21.000000)">
				<circle id="Oval" fill="#FFFFFF" cx="14" cy="14" r="14"/>
			</g>
		</g>
	</g>
	<g>
		<g>
			<path fill="#3F495E" d="M3,8.722v11.456c0,1.578,1.289,2.865,2.866,2.865h9.258c1.578,0,2.867-1.287,2.867-2.865v-1.856
				c0-0.313-0.254-0.567-0.567-0.567c-0.314,0-0.569,0.255-0.569,0.567v1.856c0,0.955-0.779,1.735-1.735,1.735H5.866
				c-0.955,0-1.735-0.78-1.735-1.735V8.722c0-0.956,0.78-1.736,1.735-1.736h9.258c0.955,0,1.735,0.78,1.735,1.736v1.855
				c0,0.314,0.255,0.567,0.568,0.567c0.314,0,0.568-0.253,0.568-0.567V8.722c0-1.579-1.289-2.867-2.867-2.867H5.866
				C4.289,5.855,3,7.138,3,8.722z"/>
			<path fill="#3F495E" d="M20.788,18.719c0.11,0.109,0.252,0.165,0.401,0.165c0.148,0,0.291-0.056,0.401-0.165l3.871-3.873
				c0.223-0.221,0.223-0.577,0-0.798l-3.871-3.873c-0.223-0.221-0.577-0.221-0.798,0c-0.223,0.222-0.223,0.578,0,0.799l2.907,2.908
				H13.089c-0.314,0-0.568,0.254-0.568,0.567c0,0.314,0.253,0.568,0.568,0.568h10.605l-2.906,2.908
				C20.566,18.141,20.566,18.5,20.788,18.719z"/>
		</g>
	</g>
</g>
</svg>
