<?xml version="1.0" encoding="utf-8"?>
<!-- Generator: Adobe Illustrator 26.2.1, SVG Export Plug-In . SVG Version: 6.00 Build 0)  -->
<svg version="1.1" id="a" xmlns="http://www.w3.org/2000/svg" xmlns:xlink="http://www.w3.org/1999/xlink" x="0px" y="0px"
	 viewBox="0 0 494.2 144.5" style="enable-background:new 0 0 494.2 144.5;" xml:space="preserve">
<style type="text/css">
	.st0{fill:#DA005C;}
</style>
<g>
	<polygon class="st0" points="467.6,82.6 406,82.6 406,141.2 379.4,141.2 379.4,1.1 406,1.1 406,60.4 467.6,60.4 467.6,60.4 
		467.6,1.1 494.2,1.1 494.2,141.2 467.6,141.2 467.6,81 	"/>
	<polygon class="st0" points="208.8,1.1 197.5,1.1 186.1,1.1 128.3,141.2 156.2,141.2 196.8,40 198.1,40 238.4,141.2 266.6,141.2 	
		"/>
	<path class="st0" d="M262.5,110.4l0.3,0.7c1.9,5.1,13,31.9,49.3,33.3c58.3,2.3,57.3-36.5,57.3-44.4c0-5.2-2.8-21.2-19.8-30.4
		c-21.9-11.9-59.1-10.5-59.1-33.4c0-7,6.1-16.9,24.1-17.3c17.5-0.3,26.6,11.4,27.9,18l20-6c-3.5-8-11.1-30.5-48.7-30.5
		c-7.4,0-14.1,0.8-19.8,2.8c-23.4,8.2-27.6,26.8-27.6,36c0.3,53.7,77.7,39.7,76.8,67.4c-0.3,10.2-10,18.2-29.4,17.3
		c-20.1-0.8-27-13.6-30.2-21C283.5,103,262.5,110.4,262.5,110.4z"/>
	<path class="st0" d="M69.7,21.3c17.5-0.4,27.9,8.9,29.8,15.2l21.3-6C117.2,22.5,105,1.6,70.4,0l0,0C5,0,0,63.2,0,69.6
		c0,66.6,48.1,74,66.8,74.9c16.7,0.8,42.3-0.9,54.9-3.6V60.4H54.1v22.3h42.2c0.2,0,0.4,0.2,0.4,0.4v39c0,0.2-0.2,0.5-0.4,0.5
		c0,0-10.4,2.1-25.5,1.6c-5.9-0.2-43-1.7-43-51.7C27.8,40.3,43.4,21.6,69.7,21.3"/>
</g>
</svg>
