<?xml version="1.0" encoding="utf-8"?>
<!-- Generator: Adobe Illustrator 22.0.1, SVG Export Plug-In . SVG Version: 6.00 Build 0)  -->
<svg version="1.1" id="圖層_1" xmlns="http://www.w3.org/2000/svg" xmlns:xlink="http://www.w3.org/1999/xlink" x="0px" y="0px"
	 viewBox="0 0 400 60" style="enable-background:new 0 0 400 60;" xml:space="preserve">
<style type="text/css">
	.st0{fill:#FFFFFF;}
</style>
<g>
	<polygon class="st0" points="277,33.7 256.1,33.7 256.1,53 247,53 247,6.7 256.1,6.7 256.1,26.3 277,26.3 277,6.7 286.1,6.7 
		286.1,53 277,53 277,33.1 	"/>
	<polygon class="st0" points="188.9,6.7 185,6.7 181.3,6.7 161.6,53 171.1,53 184.9,19.6 185.4,19.6 199,53 208.6,53 	"/>
	<path class="st0" d="M207.3,42.8l0.1,0.2c0.6,1.7,4.4,10.5,16.8,11c19.9,0.8,19.5-12.1,19.5-14.7c0-1.7-1-7-6.7-10.1
		c-7.4-3.9-20.1-3.5-20.1-11.1c0-2.3,2.1-5.6,8.2-5.7c5.9-0.1,9.1,3.8,9.5,5.9l6.8-2c-1.2-2.6-3.8-10.1-16.6-10.1
		c-2.5,0-4.8,0.3-6.7,0.9c-8,2.7-9.4,8.9-9.4,11.9c0.1,17.7,26.4,13.1,26.1,22.3c-0.1,3.4-3.4,6-10,5.7c-6.9-0.3-9.2-4.5-10.3-7
		L207.3,42.8z"/>
	<path class="st0" d="M141.6,13.4c6-0.1,9.5,3,10.1,5l7.3-2c-1.2-2.6-5.4-9.5-17.1-10.1c-22.3,0-24,20.9-24,23
		c0,22,16.4,24.5,22.7,24.8c5.7,0.3,14.4-0.3,18.7-1.2v-3v-5.4V26.3h-23v7.4h14.4c0.1,0,0.1,0.1,0.1,0.1v12.9c0,0.1-0.1,0.2-0.1,0.2
		s-3.6,0.7-8.7,0.5c-2-0.1-14.6-0.6-14.6-17.1C127.3,19.7,132.6,13.5,141.6,13.4"/>
</g>
</svg>
