<svg xmlns="http://www.w3.org/2000/svg" viewBox="0 0 14.24 15.02"><defs><style>.cls-1{fill:none;stroke:#8ec21f;stroke-linecap:round;stroke-linejoin:round;}.cls-2{fill:#8ec21f;}.cls-3{fill:#fff;}</style></defs><title>security</title><g id="個資"><path class="cls-1" d="M13.73,2.92A20.86,20.86,0,0,1,7.12.5,20.86,20.86,0,0,1,.51,2.92c0,.12,0,.24,0,.36C.5,11.1,5.84,14,7.12,14.52,8.4,14,13.74,11.1,13.74,3.28,13.74,3.16,13.73,3,13.73,2.92Z"/><rect class="cls-2" x="4.51" y="5.6" width="5.22" height="3.99" rx="0.44" ry="0.44"/><path class="cls-2" d="M7.3,8.19H6.94A1.15,1.15,0,0,1,5.79,7V4.72A1.15,1.15,0,0,1,6.94,3.57H7.3A1.14,1.14,0,0,1,8.45,4.72V7A1.14,1.14,0,0,1,7.3,8.19ZM6.94,4.07a.65.65,0,0,0-.65.65V7a.65.65,0,0,0,.65.65H7.3A.65.65,0,0,0,8,7V4.72a.65.65,0,0,0-.65-.65Z"/><circle class="cls-3" cx="7.12" cy="7.22" r="0.54"/><path class="cls-3" d="M7.12,8.34A.15.15,0,0,1,7,8.19V7.26a.15.15,0,0,1,.3,0v.93A.15.15,0,0,1,7.12,8.34Z"/></g></svg>