<svg width="107" height="30" viewBox="0 0 107 30" fill="none" xmlns="http://www.w3.org/2000/svg">
<path d="M106.823 0.246881V29.2803H101.05V17.1321H87.7607V29.2803H82.0056V0.246881H87.7607V12.5302H101.05V0.246881H106.823ZM42.6781 0.246881H40.2202L27.722 29.2803H33.7628L42.5353 8.3104H42.8269L51.5161 29.2803H57.6342L45.1361 0.246881H42.6781ZM56.7475 22.9211L56.807 23.0681C57.2176 24.126 59.6101 29.6799 67.472 29.9796C80.0773 30.4557 79.8511 22.4216 79.8511 20.7701C79.7663 19.4391 79.3255 18.1543 78.5738 17.0464C77.822 15.9386 76.7863 15.0474 75.572 14.4638C70.8465 11.9954 62.8001 12.2951 62.8001 7.53461C62.8001 6.07707 64.1154 4.00829 68.0136 3.96127C71.7928 3.89075 73.7687 6.31216 74.0365 7.68742L78.3454 6.43558C77.5836 4.77233 75.9648 0.12346 67.8113 0.12346C66.362 0.0887263 64.9168 0.28723 63.5322 0.71118C58.4734 2.40381 57.5807 6.25926 57.5807 8.1811C57.6461 19.3008 74.3698 16.4092 74.1794 22.1571C74.1139 24.2611 72.0249 25.9303 67.8291 25.7481C63.4786 25.5717 61.9907 22.9329 61.2825 21.3931L56.7475 22.9211ZM15.0573 4.44321C18.8365 4.3668 21.0802 6.3004 21.4908 7.58751L26.1032 6.34154C25.3355 4.7018 22.6871 0.340917 15.218 3.91006e-05C1.06532 3.91006e-05 0 13.1121 0 14.4403C0 28.2459 10.3854 29.7798 14.4264 29.962C18.3952 30.0989 22.368 29.8509 26.2877 29.2215V12.5302H11.6887V17.1438H20.8064C20.8291 17.1438 20.8509 17.1523 20.8675 17.1675C20.8841 17.1828 20.8942 17.2038 20.8957 17.2261V25.319C20.8933 25.3433 20.8843 25.3666 20.8696 25.3862C20.855 25.4059 20.8352 25.4212 20.8124 25.4307C18.99 25.73 17.1411 25.8422 15.2953 25.7657C14.0158 25.7246 6.00505 25.4072 6.00505 15.0457C6.00505 8.38093 9.3736 4.50198 15.0573 4.46671" fill="white"/>
</svg>
