<svg width="108" height="30" viewBox="0 0 108 30" fill="none" xmlns="http://www.w3.org/2000/svg">
<path d="M107.411 0.246841V29.2802H101.638V17.132H88.3486V29.2802H82.5935V0.246841H88.3486V12.5302H101.638V0.246841H107.411ZM43.266 0.246841H40.8081L28.3099 29.2802H34.3507L43.1232 8.31036H43.4148L52.104 29.2802H58.2221L45.724 0.246841H43.266ZM57.3353 22.9211L57.3949 23.068C57.8055 24.1259 60.198 29.6799 68.0599 29.9796C80.6652 30.4557 80.439 22.4215 80.439 20.77C80.3542 19.4391 79.9134 18.1542 79.1617 17.0464C78.4099 15.9385 77.3742 15.0474 76.1599 14.4638C71.4344 11.9954 63.388 12.2951 63.388 7.53457C63.388 6.07703 64.7033 4.00825 68.6015 3.96124C72.3807 3.89071 74.3566 6.31212 74.6244 7.68738L78.9333 6.43554C78.1715 4.77229 76.5527 0.123421 68.3992 0.123421C66.9499 0.0886872 65.5047 0.287191 64.12 0.711141C59.0613 2.40378 58.1686 6.25922 58.1686 8.18107C58.234 19.3007 74.9577 16.4091 74.7673 22.1571C74.7018 24.2611 72.6128 25.9302 68.417 25.748C64.0665 25.5717 62.5786 22.9328 61.8704 21.393L57.3353 22.9211ZM15.6452 4.44317C19.4244 4.36676 21.6681 6.30036 22.0787 7.58747L26.6911 6.3415C25.9234 4.70176 23.275 0.340878 15.8059 0C1.65321 0 0.587891 13.112 0.587891 14.4403C0.587891 28.2458 10.9732 29.7798 15.0143 29.962C18.9831 30.0989 22.9559 29.8508 26.8756 29.2215V12.5302H12.2766V17.1438H21.3943C21.417 17.1437 21.4388 17.1522 21.4554 17.1675C21.472 17.1828 21.4821 17.2037 21.4836 17.2261V25.319C21.4812 25.3433 21.4722 25.3665 21.4575 25.3862C21.4429 25.4058 21.4231 25.4212 21.4003 25.4307C19.5779 25.7299 17.729 25.8422 15.8832 25.7657C14.6036 25.7245 6.59294 25.4071 6.59294 15.0456C6.59294 8.38089 9.96149 4.50194 15.6452 4.46667" fill="#E72E6B"/>
</svg>
