<svg width="50" height="50" viewBox="0 0 50 50" fill="none" xmlns="http://www.w3.org/2000/svg">
<path d="M39.9203 20.0251C41.1733 18.0184 41.9252 15.6355 41.9252 13.0853C41.9252 10.6187 41.2569 8.3612 40.0874 6.39632C37.8737 2.71739 33.9475 0.167224 29.3948 0H28.8936C22.0019 0 15.7785 2.801 11.2676 7.31605C11.2258 7.35786 11.1841 7.39967 11.1841 7.44147C8.71976 9.94983 6.79844 12.9599 5.54541 16.3043C4.54298 19.0217 4 21.9064 4 25C4 28.6789 4.79359 32.2324 6.25546 35.3679C7.5085 38.0853 9.22097 40.5518 11.3094 42.6421C15.2355 46.5719 20.4565 49.2057 26.304 49.8328C26.847 49.8746 27.3482 49.9164 27.8912 49.9582C28.2253 49.9582 28.5595 50 28.8936 50H29.5201C30.8149 49.9582 32.0262 49.7492 33.1957 49.4565C39.085 47.9097 43.7212 43.2274 45.2666 37.3328C45.6425 35.9532 45.8096 34.49 45.8096 33.0268C45.8096 27.7592 43.5123 23.1605 39.9203 20.0251ZM29.186 39.6739H28.8101C28.5595 39.6739 28.3089 39.6739 28.0583 39.6321C24.3409 39.4231 20.9577 37.8344 18.4517 35.3261C17.7834 34.6572 17.2404 33.9465 16.6974 33.194C15.1102 30.8528 14.1496 28.01 14.1496 24.9582C14.1496 24.2893 14.2331 23.5786 14.3166 22.9515C14.7761 19.7324 16.238 16.806 18.4517 14.5903C20.7907 12.2492 23.8815 10.7023 27.3482 10.3679C27.5988 10.3679 27.8076 10.3261 28.0583 10.2843H28.8101C29.5523 10.2843 30.2641 10.5794 30.7889 11.1047C31.3137 11.63 31.6085 12.3424 31.6085 13.0853C31.6085 13.8282 31.3137 14.5406 30.7889 15.0659C30.2641 15.5912 29.5523 15.8863 28.8101 15.8863C27.0558 15.8863 25.5104 16.7642 24.5915 18.102C24.0068 18.9381 23.6726 19.9415 23.6726 21.0284C23.6726 23.8712 25.9699 26.1706 28.8101 26.1706H29.186C32.6945 26.3796 35.5347 29.306 35.5347 32.9013C35.5347 36.4967 32.7362 39.4649 29.186 39.6739Z" fill="#00388B"/>
<path d="M29.1852 26.212H28.8093C25.9691 26.212 23.6719 23.9127 23.6719 21.0699C23.6719 18.2271 25.9691 15.9277 28.8093 15.9277H28.1828C25.1755 16.095 22.4188 17.3909 20.414 19.3976C18.2838 21.5715 16.9473 24.5398 16.9473 27.8006C16.9473 31.0615 18.2838 34.0297 20.414 36.2037C22.4188 38.2103 25.1338 39.5063 28.1828 39.6736H29.1852C32.6937 39.4645 35.5339 36.5381 35.5339 32.9428C35.5339 29.3475 32.7355 26.3792 29.1852 26.212Z" fill="#ABCD03"/>
<path d="M28.8519 39.672H28.2254C25.2181 39.5048 22.4614 38.2088 20.4566 36.2021C18.3264 34.0282 16.9898 31.06 16.9898 27.7991C16.9898 24.5383 18.3264 21.57 20.4566 19.3961C22.4614 17.3894 25.1763 16.0934 28.2254 15.9262H28.8519C29.5941 15.9262 30.3059 15.6311 30.8307 15.1058C31.3555 14.5805 31.6503 13.8681 31.6503 13.1252C31.6503 12.3823 31.3555 11.6699 30.8307 11.1446C30.3059 10.6193 29.5941 10.3242 28.8519 10.3242H28.1001C24.3828 10.5332 20.9996 12.1219 18.4935 14.6302C15.8621 17.264 14.1914 20.9429 14.1914 24.9981C14.1914 29.0533 15.8204 32.6904 18.4935 35.366C20.9578 37.8744 24.341 39.463 28.1001 39.672H29.2278H28.8519Z" fill="#E62E8B"/>
</svg>
