<svg width="130" height="130" viewBox="0 0 130 130" fill="none" xmlns="http://www.w3.org/2000/svg">
<path d="M66.4163 14.5249C65.2841 14.1826 64.0759 14.1826 62.9437 14.5249L23.0463 26.5858C22.227 26.8335 21.6571 27.55 21.6292 28.4054C21.3844 35.909 20.3182 71.0909 21.6762 76C27.1568 95.8128 53.9638 110.65 62.241 114.818C63.7809 115.594 65.5791 115.594 67.119 114.818C75.3956 110.65 102.2 95.8127 107.68 76C109.038 71.0909 107.972 35.909 107.727 28.4054C107.699 27.55 107.129 26.8335 106.31 26.5858L66.4163 14.5249Z" fill="#F4F4F4"/>
<path d="M61.9213 14.5295C63.2054 14.1414 64.5 15.1025 64.5 16.444V112.651C64.5 114.104 63.0274 115.06 61.7321 114.402C53.097 110.017 26.9062 95.3077 21.4962 75.75C20.1382 70.8409 21.2044 35.659 21.4492 28.1554C21.4771 27.3 22.047 26.5835 22.8663 26.3358L61.9213 14.5295Z" fill="white" fill-opacity="0.4"/>
<path fill-rule="evenodd" clip-rule="evenodd" d="M50 50H81C84.866 50 88 53.134 88 57V77C88 80.866 84.866 84 81 84H50C46.134 84 43 80.866 43 77V57C43 53.134 46.134 50 50 50ZM50 53C47.7909 53 46 54.7909 46 57V77C46 79.2091 47.7909 81 50 81H81C83.2091 81 85 79.2091 85 77V57C85 54.7909 83.2091 53 81 53H50Z" fill="#CCCCCC"/>
<path d="M66.7026 67.6206C68.0601 66.981 69 65.6003 69 64C69 61.7908 67.209 60 65 60C62.791 60 61 61.7908 61 64C61 65.6003 61.9399 66.981 63.2974 67.6206L62.5 74H67.5L66.7026 67.6206Z" fill="#CCCCCC"/>
<path d="M75 50V45C75 39.4772 70.5228 35 65 35C59.4772 35 55 39.4772 55 45V50C55 50 55 51.75 53.5 51.75C52 51.75 52 50 52 50V45C52 37.8203 57.8203 32 65 32C72.1797 32 78 37.8203 78 45V50C78 50 78 51.75 76.5 51.75C75 51.75 75 50 75 50Z" fill="#CCCCCC"/>
</svg>
